  0
SECTION
  2
HEADER
  9
$EXTMIN
 10
-6.526153885839223
 20
-6.250718557062378
 30
0.0
  9
$EXTMAX
 10
187.9061995434242
 20
67.72525463917883
 30
0.0
  0
ENDSEC
  0
SECTION
  2
TABLES
  0
TABLE
  2
LTYPE
 70
     1
  0
LTYPE
  2
CONTINUOUS
 70
    64
  3
Solid line
 72
    65
 73
     0
 40
0.0
  0
ENDTAB
  0
TABLE
  2
LAYER
 70
     2
  0
LAYER
  2
0
 70
     0
 62
     7
  6
CONTINUOUS
  0
ENDTAB
  0
TABLE
  2
STYLE
 70
     1
  0
STYLE
  2
STANDARD
 70
     0
 40
0.0
 41
1.0
 50
0.0
 71
     0
 42
0.2
  3
txt
  4

  0
ENDTAB
  0
ENDSEC
  0
SECTION
  2
ENTITIES
  0
POLYLINE
  8
EXTERNAL
 10
0.0
 20
0.0
 30
0
 62
     6
 40
0
 41
0
 66
     1
  0
VERTEX
  8
EXTERNAL
 62
     6
 10
186
 20
-1
 30
0
  0
VERTEX
  8
EXTERNAL
 62
     6
 10
186
 20
7
 30
0
  0
VERTEX
  8
EXTERNAL
 62
     6
 10
186
 20
10
 30
0
  0
VERTEX
  8
EXTERNAL
 62
     6
 10
186
 20
20
 30
0
  0
VERTEX
  8
EXTERNAL
 62
     6
 10
136.946210139993
 20
20.2735046337472
 30
0
  0
VERTEX
  8
EXTERNAL
 62
     6
 10
134.176709407571
 20
20.7553047130929
 30
0
  0
VERTEX
  8
EXTERNAL
 62
     6
 10
132.377508968118
 20
21.6921047161446
 30
0
  0
VERTEX
  8
EXTERNAL
 62
     6
 10
129.646307796243
 20
21.8999046276437
 30
0
  0
VERTEX
  8
EXTERNAL
 62
     6
 10
127.16
 20
22.229
 30
0
  0
VERTEX
  8
EXTERNAL
 62
     6
 10
125.115411800149
 20
24.3893043468819
 30
0
  0
VERTEX
  8
EXTERNAL
 62
     6
 10
123.593707698587
 20
25.994805140339
 30
0
  0
VERTEX
  8
EXTERNAL
 62
     6
 10
122.157507747415
 20
27.4265045116769
 30
0
  0
VERTEX
  8
EXTERNAL
 62
     6
 10
120.204309505227
 20
28.1549049328194
 30
0
  0
VERTEX
  8
EXTERNAL
 62
     6
 10
118.208111995462
 20
28.8938049267159
 30
0
  0
VERTEX
  8
EXTERNAL
 62
     6
 10
116.93880657554
 20
30.8640037487374
 30
0
  0
VERTEX
  8
EXTERNAL
 62
     6
 10
115.688510555032
 20
31.755904383503
 30
0
  0
VERTEX
  8
EXTERNAL
 62
     6
 10
113.459708064798
 20
33.7530052135812
 30
0
  0
VERTEX
  8
EXTERNAL
 62
     6
 10
111.712909358743
 20
34.7548057506905
 30
0
  0
VERTEX
  8
EXTERNAL
 62
     6
 10
110.323907893899
 20
35.7565040539132
 30
0
  0
VERTEX
  8
EXTERNAL
 62
     6
 10
108.174408382181
 20
37.6495048473702
 30
0
  0
VERTEX
  8
EXTERNAL
 62
     6
 10
106.229608577493
 20
39.0432029674874
 30
0
  0
VERTEX
  8
EXTERNAL
 62
     6
 10
104.935809749368
 20
39.9360053966866
 30
0
  0
VERTEX
  8
EXTERNAL
 62
     6
 10
102.458111995462
 20
42.0176048229562
 30
0
  0
VERTEX
  8
EXTERNAL
 62
     6
 10
100.442007869485
 20
43.5973045299874
 30
0
  0
VERTEX
  8
EXTERNAL
 62
     6
 10
97.7056095540556
 20
45.7129051159249
 30
0
  0
VERTEX
  8
EXTERNAL
 62
     6
 10
96.1440098226103
 20
47.2384025524483
 30
0
  0
VERTEX
  8
EXTERNAL
 62
     6
 10
94.6580097615751
 20
48.457305140339
 30
0
  0
VERTEX
  8
EXTERNAL
 62
     6
 10
92.67470898032509
 20
49.8229057262765
 30
0
  0
VERTEX
  8
EXTERNAL
 62
     6
 10
91.3870106160673
 20
51.0656028698312
 30
0
  0
VERTEX
  8
EXTERNAL
 62
     6
 10
89.1363102376494
 20
53.1894065807687
 30
0
  0
VERTEX
  8
EXTERNAL
 62
     6
 10
86.8638096272978
 20
54.6029045055733
 30
0
  0
VERTEX
  8
EXTERNAL
 62
     6
 10
85.13780865073529
 20
54.5757041881905
 30
0
  0
VERTEX
  8
EXTERNAL
 62
     6
 10
83.1250095784696
 20
54.3717063854562
 30
0
  0
VERTEX
  8
EXTERNAL
 62
     6
 10
81.2693096578154
 20
54.3667045544015
 30
0
  0
VERTEX
  8
EXTERNAL
 62
     6
 10
79.3843098104032
 20
54.0674034069405
 30
0
  0
VERTEX
  8
EXTERNAL
 62
     6
 10
77.29170956015911
 20
54.1944023083077
 30
0
  0
VERTEX
  8
EXTERNAL
 62
     6
 10
75.6236095845732
 20
55.1645042370187
 30
0
  0
VERTEX
  8
EXTERNAL
 62
     6
 10
74.05390934348431
 20
58.1251060436593
 30
0
  0
VERTEX
  8
EXTERNAL
 62
     6
 10
72.3862093389067
 20
59.6585044811593
 30
0
  0
VERTEX
  8
EXTERNAL
 62
     6
 10
70.5227094590697
 20
61.0420066784249
 30
0
  0
VERTEX
  8
EXTERNAL
 62
     6
 10
68.116009372476
 20
63.7069053600655
 30
0
  0
VERTEX
  8
EXTERNAL
 62
     6
 10
66.8155094563994
 20
64.5822044323312
 30
0
  0
VERTEX
  8
EXTERNAL
 62
     6
 10
64.27620968222951
 20
65.3091026256905
 30
0
  0
VERTEX
  8
EXTERNAL
 62
     6
 10
62.6868099629912
 20
65.6758079479562
 30
0
  0
VERTEX
  8
EXTERNAL
 62
     6
 10
59.6071094930205
 20
65.8016044567452
 30
0
  0
VERTEX
  8
EXTERNAL
 62
     6
 10
57.6555096089873
 20
65.916402430378
 30
0
  0
VERTEX
  8
EXTERNAL
 62
     6
 10
55.5468098104033
 20
66.0999046276437
 30
0
  0
VERTEX
  8
EXTERNAL
 62
     6
 10
52.0808109700713
 20
66.1760032604562
 30
0
  0
VERTEX
  8
EXTERNAL
 62
     6
 10
49.12200970054
 20
66.1999046276437
 30
0
  0
VERTEX
  8
EXTERNAL
 62
     6
 10
46.3606083333525
 20
66.2734062145577
 30
0
  0
VERTEX
  8
EXTERNAL
 62
     6
 10
43.2035099446806
 20
66.3301048229562
 30
0
  0
VERTEX
  8
EXTERNAL
 62
     6
 10
39.1674107015166
 20
66.49950789912801
 30
0
  0
VERTEX
  8
EXTERNAL
 62
     6
 10
36.736609309915
 20
66.5270072887765
 30
0
  0
VERTEX
  8
EXTERNAL
 62
     6
 10
34.6502109944853
 20
66.576802821003
 30
0
  0
VERTEX
  8
EXTERNAL
 62
     6
 10
31.9728092610869
 20
66.6919029186593
 30
0
  0
VERTEX
  8
EXTERNAL
 62
     6
 10
0
 20
67
 30
0
  0
VERTEX
  8
EXTERNAL
 62
     6
 10
0
 20
57.5
 30
0
  0
VERTEX
  8
EXTERNAL
 62
     6
 10
0
 20
54.5
 30
0
  0
VERTEX
  8
EXTERNAL
 62
     6
 10
0
 20
-1
 30
0
  0
VERTEX
  8
EXTERNAL
 62
     6
 10
186
 20
-1
 30
0
  0
SEQEND
  8
EXTERNAL
  0
POLYLINE
  8
MATERIAL
 10
0.0
 20
0.0
 30
0
 62
     3
 40
0
 41
0
 66
     1
  0
VERTEX
  8
MATERIAL
 62
     3
 10
0
 20
57.5
 30
0
  0
VERTEX
  8
MATERIAL
 62
     3
 10
7.46291037599572
 20
57.554304753783
 30
0
  0
VERTEX
  8
MATERIAL
 62
     3
 10
10.4443058431182
 20
57.5565055797921
 30
0
  0
VERTEX
  8
MATERIAL
 62
     3
 10
12.0112324178251
 20
57.5265792797433
 30
0
  0
VERTEX
  8
MATERIAL
 62
     3
 10
14.7073582112822
 20
57.4944541881905
 30
0
  0
VERTEX
  8
MATERIAL
 62
     3
 10
16.864358943704
 20
57.4434303234444
 30
0
  0
VERTEX
  8
MATERIAL
 62
     3
 10
18.5994104166859
 20
57.4496381074614
 30
0
  0
VERTEX
  8
MATERIAL
 62
     3
 10
20.9193347076608
 20
57.3691380769438
 30
0
  0
VERTEX
  8
MATERIAL
 62
     3
 10
23.6345926066272
 20
57.2685717215564
 30
0
  0
VERTEX
  8
MATERIAL
 62
     3
 10
26.3091321980986
 20
57.2574594066964
 30
0
  0
VERTEX
  8
MATERIAL
 62
     3
 10
29.1014049947295
 20
57.2581122031239
 30
0
  0
VERTEX
  8
MATERIAL
 62
     3
 10
31.502756160501
 20
57.1533217062976
 30
0
  0
VERTEX
  8
MATERIAL
 62
     3
 10
33.896009486917
 20
57.096191782795
 30
0
  0
VERTEX
  8
MATERIAL
 62
     3
 10
36.1590102295114
 20
57.0935045828845
 30
0
  0
VERTEX
  8
MATERIAL
 62
     3
 10
38.4708103597197
 20
56.9999046276437
 30
0
  0
VERTEX
  8
MATERIAL
 62
     3
 10
41.0779591023955
 20
56.8669029186593
 30
0
  0
VERTEX
  8
MATERIAL
 62
     3
 10
42.6570087850127
 20
56.8286552379952
 30
0
  0
VERTEX
  8
MATERIAL
 62
     3
 10
44.2272098958525
 20
56.792803187214
 30
0
  0
VERTEX
  8
MATERIAL
 62
     3
 10
46.9400094767445
 20
56.7544059704171
 30
0
  0
VERTEX
  8
MATERIAL
 62
     3
 10
49.7025675872995
 20
56.7147673239734
 30
0
  0
VERTEX
  8
MATERIAL
 62
     3
 10
53.3366530225358
 20
56.6122553577458
 30
0
  0
VERTEX
  8
MATERIAL
 62
     3
 10
55.5653219640288
 20
56.5267669628488
 30
0
  0
VERTEX
  8
MATERIAL
 62
     3
 10
57.3991098821196
 20
56.3984275768624
 30
0
  0
VERTEX
  8
MATERIAL
 62
     3
 10
59.0187260091338
 20
56.3245368908273
 30
0
  0
VERTEX
  8
MATERIAL
 62
     3
 10
60.8110429545277
 20
56.2636721243884
 30
0
  0
VERTEX
  8
MATERIAL
 62
     3
 10
62.3575596272978
 20
56.1936057995187
 30
0
  0
VERTEX
  8
MATERIAL
 62
     3
 10
64.6321844518218
 20
55.6952537487374
 30
0
  0
VERTEX
  8
MATERIAL
 62
     3
 10
66.33244696657189
 20
55.2419965058989
 30
0
  0
VERTEX
  8
MATERIAL
 62
     3
 10
68.5392009423532
 20
53.5915448459039
 30
0
  0
VERTEX
  8
MATERIAL
 62
     3
 10
69.7987594544921
 20
52.1010810802804
 30
0
  0
VERTEX
  8
MATERIAL
 62
     3
 10
71.725409438216
 20
50.619087977253
 30
0
  0
VERTEX
  8
MATERIAL
 62
     3
 10
73.8715593755278
 20
48.7017539928781
 30
0
  0
VERTEX
  8
MATERIAL
 62
     3
 10
75.4262574437706
 20
45.8822138578521
 30
0
  0
VERTEX
  8
MATERIAL
 62
     3
 10
77.7776969850096
 20
44.6566233903593
 30
0
  0
VERTEX
  8
MATERIAL
 62
     3
 10
80.0620763560169
 20
44.672495773477
 30
0
  0
VERTEX
  8
MATERIAL
 62
     3
 10
82.3821393239531
 20
44.8804452974027
 30
0
  0
VERTEX
  8
MATERIAL
 62
     3
 10
84.70949924826949
 20
45.0157771252022
 30
0
  0
VERTEX
  8
MATERIAL
 62
     3
 10
86.7710598409208
 20
45.1041557262765
 30
0
  0
VERTEX
  8
MATERIAL
 62
     3
 10
88.2786096354359
 20
44.7771224926339
 30
0
  0
VERTEX
  8
MATERIAL
 62
     3
 10
89.86100983023969
 20
43.0860923717843
 30
0
  0
VERTEX
  8
MATERIAL
 62
     3
 10
91.7017094075712
 20
41.2482032726632
 30
0
  0
VERTEX
  8
MATERIAL
 62
     3
 10
93.5220430155628
 20
39.7033724417713
 30
0
  0
VERTEX
  8
MATERIAL
 62
     3
 10
95.7004045522245
 20
38.1271601818429
 30
0
  0
VERTEX
  8
MATERIAL
 62
     3
 10
96.92680935263969
 20
36.8587791393624
 30
0
  0
VERTEX
  8
MATERIAL
 62
     3
 10
98.5822094380889
 20
35.4856285045968
 30
0
  0
VERTEX
  8
MATERIAL
 62
     3
 10
100.908870052103
 20
33.7298844860421
 30
0
  0
VERTEX
  8
MATERIAL
 62
     3
 10
103.267760127786
 20
31.8499038647042
 30
0
  0
VERTEX
  8
MATERIAL
 62
     3
 10
104.785909440123
 20
30.5350049287504
 30
0
  0
VERTEX
  8
MATERIAL
 62
     3
 10
107.273608821634
 20
28.7038040111886
 30
0
  0
VERTEX
  8
MATERIAL
 62
     3
 10
108.652808040384
 20
27.4051048229562
 30
0
  0
VERTEX
  8
MATERIAL
 62
     3
 10
110.278659480813
 20
26.3005546520577
 30
0
  0
VERTEX
  8
MATERIAL
 62
     3
 10
111.72428402305
 20
25.2693546245919
 30
0
  0
VERTEX
  8
MATERIAL
 62
     3
 10
113.734175787372
 20
23.9756961773262
 30
0
  0
VERTEX
  8
MATERIAL
 62
     3
 10
116.295034450296
 20
21.823679346882
 30
0
  0
VERTEX
  8
MATERIAL
 62
     3
 10
118.781
 20
19.725
 30
0
  0
VERTEX
  8
MATERIAL
 62
     3
 10
121.043480436208
 20
18.4084770025426
 30
0
  0
VERTEX
  8
MATERIAL
 62
     3
 10
122.569
 20
17.602
 30
0
  0
VERTEX
  8
MATERIAL
 62
     3
 10
123.593707698587
 20
16.494805140339
 30
0
  0
VERTEX
  8
MATERIAL
 62
     3
 10
125.511661189798
 20
14.3763545940743
 30
0
  0
VERTEX
  8
MATERIAL
 62
     3
 10
126.982138750555
 20
12.787186319247
 30
0
  0
VERTEX
  8
MATERIAL
 62
     3
 10
128.813989681009
 20
12.4245246075021
 30
0
  0
VERTEX
  8
MATERIAL
 62
     3
 10
131.01203503013
 20
12.3536797474252
 30
0
  0
VERTEX
  8
MATERIAL
 62
     3
 10
133.033
 20
11.869
 30
0
  0
VERTEX
  8
MATERIAL
 62
     3
 10
134.938
 20
11.049
 30
0
  0
VERTEX
  8
MATERIAL
 62
     3
 10
136.618
 20
10.53
 30
0
  0
VERTEX
  8
MATERIAL
 62
     3
 10
186
 20
10
 30
0
  0
SEQEND
  8
MATERIAL
  0
POLYLINE
  8
MATERIAL
 10
0.0
 20
0.0
 30
0
 62
     3
 40
0
 41
0
 66
     1
  0
VERTEX
  8
MATERIAL
 62
     3
 10
62.6283046854751
 20
53.1299049328194
 30
0
  0
VERTEX
  8
MATERIAL
 62
     3
 10
66.1041343947284
 20
52.2951632132556
 30
0
  0
VERTEX
  8
MATERIAL
 62
     3
 10
68.36247188449229
 20
50.8442924450265
 30
0
  0
VERTEX
  8
MATERIAL
 62
     3
 10
69.5109594762358
 20
49.4197547863351
 30
0
  0
VERTEX
  8
MATERIAL
 62
     3
 10
71.2632427950733
 20
47.9546043346749
 30
0
  0
VERTEX
  8
MATERIAL
 62
     3
 10
73.3716721940993
 20
46.0725459625337
 30
0
  0
VERTEX
  8
MATERIAL
 62
     3
 10
74.630774671437
 20
43.9953226751499
 30
0
  0
VERTEX
  8
MATERIAL
 62
     3
 10
76.78444709182109
 20
41.829873461567
 30
0
  0
VERTEX
  8
MATERIAL
 62
     3
 10
79.598584343993
 20
41.6578173270252
 30
0
  0
VERTEX
  8
MATERIAL
 62
     3
 10
82.3821393239531
 20
41.8804452974027
 30
0
  0
VERTEX
  8
MATERIAL
 62
     3
 10
86.36878437400181
 20
42.0642311046944
 30
0
  0
VERTEX
  8
MATERIAL
 62
     3
 10
88.0443099121285
 20
42.0211372326241
 30
0
  0
VERTEX
  8
MATERIAL
 62
     3
 10
89.10510982871379
 20
40.7462547252999
 30
0
  0
VERTEX
  8
MATERIAL
 62
     3
 10
90.3098102986845
 20
39.6590049694405
 30
0
  0
VERTEX
  8
MATERIAL
 62
     3
 10
91.3870106160673
 20
38.5656028698312
 30
0
  0
VERTEX
  8
MATERIAL
 62
     3
 10
92.67470898032509
 20
37.3229057262765
 30
0
  0
VERTEX
  8
MATERIAL
 62
     3
 10
94.5559589803251
 20
36.0023048351632
 30
0
  0
VERTEX
  8
MATERIAL
 62
     3
 10
96.3845792806181
 20
34.4417842052804
 30
0
  0
VERTEX
  8
MATERIAL
 62
     3
 10
99.0157078206572
 20
32.1066032360421
 30
0
  0
VERTEX
  8
MATERIAL
 62
     3
 10
100.257469295266
 20
31.2350846813546
 30
0
  0
VERTEX
  8
MATERIAL
 62
     3
 10
101.602708858255
 20
30.1881042431222
 30
0
  0
VERTEX
  8
MATERIAL
 62
     3
 10
102.774609798196
 20
29.237903590046
 30
0
  0
VERTEX
  8
MATERIAL
 62
     3
 10
104.785909440123
 20
27.5350049287504
 30
0
  0
VERTEX
  8
MATERIAL
 62
     3
 10
106.20480846763
 20
26.5623542736398
 30
0
  0
VERTEX
  8
MATERIAL
 62
     3
 10
107.540308040384
 20
25.4897041271554
 30
0
  0
VERTEX
  8
MATERIAL
 62
     3
 10
108.811309220397
 20
24.3091046601957
 30
0
  0
VERTEX
  8
MATERIAL
 62
     3
 10
110.278659480813
 20
23.3005546520577
 30
0
  0
VERTEX
  8
MATERIAL
 62
     3
 10
112.297808498147
 20
22.0906791637765
 30
0
  0
VERTEX
  8
MATERIAL
 62
     3
 10
114.699859279398
 20
20.1121288250313
 30
0
  0
VERTEX
  8
MATERIAL
 62
     3
 10
116.901558345559
 20
18.3914543102609
 30
0
  0
VERTEX
  8
MATERIAL
 62
     3
 10
119.155
 20
16.54
 30
0
  0
VERTEX
  8
MATERIAL
 62
     3
 10
121.529709285501
 20
15.1845546673165
 30
0
  0
VERTEX
  8
MATERIAL
 62
     3
 10
123.593707698587
 20
13.494805140339
 30
0
  0
VERTEX
  8
MATERIAL
 62
     3
 10
125.511661189798
 20
11.3763545940743
 30
0
  0
VERTEX
  8
MATERIAL
 62
     3
 10
127.1855
 20
9.798999999999999
 30
0
  0
VERTEX
  8
MATERIAL
 62
     3
 10
129.230148738626
 20
9.412214617572859
 30
0
  0
VERTEX
  8
MATERIAL
 62
     3
 10
130.909009212259
 20
9.342037704629339
 30
0
  0
VERTEX
  8
MATERIAL
 62
     3
 10
132.644
 20
8.856999999999999
 30
0
  0
VERTEX
  8
MATERIAL
 62
     3
 10
134.600272029642
 20
8.06084217532738
 30
0
  0
VERTEX
  8
MATERIAL
 62
     3
 10
136.105128597024
 20
7.65742454036339
 30
0
  0
VERTEX
  8
MATERIAL
 62
     3
 10
186
 20
7
 30
0
  0
SEQEND
  8
MATERIAL
  0
POLYLINE
  8
MATERIAL
 10
0.0
 20
0.0
 30
0
 62
     3
 40
0
 41
0
 66
     1
  0
VERTEX
  8
MATERIAL
 62
     3
 10
58.9795093953642
 20
53.6216026256905
 30
0
  0
VERTEX
  8
MATERIAL
 62
     3
 10
60.469
 20
53.4355
 30
0
  0
VERTEX
  8
MATERIAL
 62
     3
 10
62.6283046854751
 20
53.1299049328194
 30
0
  0
SEQEND
  8
MATERIAL
  0
POLYLINE
  8
MATERIAL
 10
0.0
 20
0.0
 30
0
 62
     3
 40
0
 41
0
 66
     1
  0
VERTEX
  8
MATERIAL
 62
     3
 10
0
 20
54.5
 30
0
  0
VERTEX
  8
MATERIAL
 62
     3
 10
7.46291037599572
 20
54.554304753783
 30
0
  0
VERTEX
  8
MATERIAL
 62
     3
 10
10.4443058431182
 20
54.5565055797921
 30
0
  0
VERTEX
  8
MATERIAL
 62
     3
 10
12.0112324178251
 20
54.5265792797433
 30
0
  0
VERTEX
  8
MATERIAL
 62
     3
 10
14.3120060384306
 20
54.478105921589
 30
0
  0
VERTEX
  8
MATERIAL
 62
     3
 10
16.864358943704
 20
54.4434303234444
 30
0
  0
VERTEX
  8
MATERIAL
 62
     3
 10
19.9198078572783
 20
54.3709052990304
 30
0
  0
VERTEX
  8
MATERIAL
 62
     3
 10
22.5835433105661
 20
54.3172701468494
 30
0
  0
VERTEX
  8
MATERIAL
 62
     3
 10
24.7129429280791
 20
54.2788719127999
 30
0
  0
VERTEX
  8
MATERIAL
 62
     3
 10
27.3816074788603
 20
54.2477546642648
 30
0
  0
VERTEX
  8
MATERIAL
 62
     3
 10
29.2932072103056
 20
54.2318077038155
 30
0
  0
VERTEX
  8
MATERIAL
 62
     3
 10
31.7520435750517
 20
54.1072380016671
 30
0
  0
VERTEX
  8
MATERIAL
 62
     3
 10
34.5437595784697
 20
54.0700035045968
 30
0
  0
VERTEX
  8
MATERIAL
 62
     3
 10
36.6806105713083
 20
54.0303052217192
 30
0
  0
VERTEX
  8
MATERIAL
 62
     3
 10
38.89033001304
 20
54.0456852672921
 30
0
  0
VERTEX
  8
MATERIAL
 62
     3
 10
40.9979795491728
 20
53.8895286510812
 30
0
  0
VERTEX
  8
MATERIAL
 62
     3
 10
43.36644329429
 20
53.8248374889718
 30
0
  0
VERTEX
  8
MATERIAL
 62
     3
 10
45.5001092692249
 20
53.8051709443754
 30
0
  0
VERTEX
  8
MATERIAL
 62
     3
 10
47.1651091674996
 20
53.8677370657947
 30
0
  0
VERTEX
  8
MATERIAL
 62
     3
 10
48.95654288332
 20
53.7096377005603
 30
0
  0
VERTEX
  8
MATERIAL
 62
     3
 10
50.9172754069202
 20
53.6966382295317
 30
0
  0
VERTEX
  8
MATERIAL
 62
     3
 10
53.0843090474638
 20
53.5629539440499
 30
0
  0
VERTEX
  8
MATERIAL
 62
     3
 10
55.3163427134388
 20
53.5547417909331
 30
0
  0
VERTEX
  8
MATERIAL
 62
     3
 10
58.9795093953642
 20
53.6216026256905
 30
0
  0
SEQEND
  8
MATERIAL
  0
POLYLINE
  8
WATER_TABLE
 10
0.0
 20
0.0
 30
0
 62
     5
 40
0
 41
0
 66
     1
  0
VERTEX
  8
WATER_TABLE
 62
     5
 10
0
 20
67
 30
0
  0
VERTEX
  8
WATER_TABLE
 62
     5
 10
31.9728092610869
 20
66.6919029186593
 30
0
  0
VERTEX
  8
WATER_TABLE
 62
     5
 10
34.6502109944853
 20
66.576802821003
 30
0
  0
VERTEX
  8
WATER_TABLE
 62
     5
 10
36.736609309915
 20
66.5270072887765
 30
0
  0
VERTEX
  8
WATER_TABLE
 62
     5
 10
39.1674107015166
 20
66.49950789912801
 30
0
  0
VERTEX
  8
WATER_TABLE
 62
     5
 10
43.2035099446806
 20
66.3301048229562
 30
0
  0
VERTEX
  8
WATER_TABLE
 62
     5
 10
46.3606083333525
 20
66.2734062145577
 30
0
  0
VERTEX
  8
WATER_TABLE
 62
     5
 10
49.12200970054
 20
66.1999046276437
 30
0
  0
VERTEX
  8
WATER_TABLE
 62
     5
 10
52.0808109700713
 20
66.1760032604562
 30
0
  0
VERTEX
  8
WATER_TABLE
 62
     5
 10
55.5468098104033
 20
66.0999046276437
 30
0
  0
VERTEX
  8
WATER_TABLE
 62
     5
 10
57.6555096089873
 20
65.916402430378
 30
0
  0
VERTEX
  8
WATER_TABLE
 62
     5
 10
59.6071094930205
 20
65.8016044567452
 30
0
  0
VERTEX
  8
WATER_TABLE
 62
     5
 10
62.6868099629912
 20
65.6758079479562
 30
0
  0
VERTEX
  8
WATER_TABLE
 62
     5
 10
64.27620968222951
 20
65.3091026256905
 30
0
  0
VERTEX
  8
WATER_TABLE
 62
     5
 10
66.8155094563994
 20
64.5822044323312
 30
0
  0
VERTEX
  8
WATER_TABLE
 62
     5
 10
68.116009372476
 20
63.7069053600655
 30
0
  0
VERTEX
  8
WATER_TABLE
 62
     5
 10
70.5227094590697
 20
61.0420066784249
 30
0
  0
VERTEX
  8
WATER_TABLE
 62
     5
 10
72.3862093389067
 20
59.6585044811593
 30
0
  0
VERTEX
  8
WATER_TABLE
 62
     5
 10
74.05390934348431
 20
58.1251060436593
 30
0
  0
VERTEX
  8
WATER_TABLE
 62
     5
 10
75.6236095845732
 20
55.1645042370187
 30
0
  0
VERTEX
  8
WATER_TABLE
 62
     5
 10
77.29170956015911
 20
54.1944023083077
 30
0
  0
VERTEX
  8
WATER_TABLE
 62
     5
 10
79.3843098104032
 20
54.0674034069405
 30
0
  0
VERTEX
  8
WATER_TABLE
 62
     5
 10
83.123
 20
53.771
 30
0
  0
VERTEX
  8
WATER_TABLE
 62
     5
 10
85.658
 20
53.352
 30
0
  0
VERTEX
  8
WATER_TABLE
 62
     5
 10
87.664
 20
52.789
 30
0
  0
VERTEX
  8
WATER_TABLE
 62
     5
 10
89.578
 20
51.765
 30
0
  0
VERTEX
  8
WATER_TABLE
 62
     5
 10
91.501
 20
50.682
 30
0
  0
VERTEX
  8
WATER_TABLE
 62
     5
 10
92.67470898032509
 20
49.8229057262765
 30
0
  0
VERTEX
  8
WATER_TABLE
 62
     5
 10
94.6580097615751
 20
48.457305140339
 30
0
  0
VERTEX
  8
WATER_TABLE
 62
     5
 10
96.1440098226103
 20
47.2384025524483
 30
0
  0
VERTEX
  8
WATER_TABLE
 62
     5
 10
97.7056095540556
 20
45.7129051159249
 30
0
  0
VERTEX
  8
WATER_TABLE
 62
     5
 10
100.442007869485
 20
43.5973045299874
 30
0
  0
VERTEX
  8
WATER_TABLE
 62
     5
 10
102.458111995462
 20
42.0176048229562
 30
0
  0
VERTEX
  8
WATER_TABLE
 62
     5
 10
104.935809749368
 20
39.9360053966866
 30
0
  0
VERTEX
  8
WATER_TABLE
 62
     5
 10
106.229608577493
 20
39.0432029674874
 30
0
  0
VERTEX
  8
WATER_TABLE
 62
     5
 10
108.174408382181
 20
37.6495048473702
 30
0
  0
VERTEX
  8
WATER_TABLE
 62
     5
 10
110.323907893899
 20
35.7565040539132
 30
0
  0
VERTEX
  8
WATER_TABLE
 62
     5
 10
111.712909358743
 20
34.7548057506905
 30
0
  0
VERTEX
  8
WATER_TABLE
 62
     5
 10
113.459708064798
 20
33.7530052135812
 30
0
  0
VERTEX
  8
WATER_TABLE
 62
     5
 10
115.688510555032
 20
31.755904383503
 30
0
  0
VERTEX
  8
WATER_TABLE
 62
     5
 10
116.93880657554
 20
30.8640037487374
 30
0
  0
VERTEX
  8
WATER_TABLE
 62
     5
 10
118.208111995462
 20
28.8938049267159
 30
0
  0
VERTEX
  8
WATER_TABLE
 62
     5
 10
120.204309505227
 20
28.1549049328194
 30
0
  0
VERTEX
  8
WATER_TABLE
 62
     5
 10
122.157507747415
 20
27.4265045116769
 30
0
  0
VERTEX
  8
WATER_TABLE
 62
     5
 10
123.593707698587
 20
25.994805140339
 30
0
  0
VERTEX
  8
WATER_TABLE
 62
     5
 10
125.115411800149
 20
24.3893043468819
 30
0
  0
VERTEX
  8
WATER_TABLE
 62
     5
 10
127.16
 20
22.229
 30
0
  0
VERTEX
  8
WATER_TABLE
 62
     5
 10
129.646307796243
 20
21.8999046276437
 30
0
  0
VERTEX
  8
WATER_TABLE
 62
     5
 10
132.377508968118
 20
21.6921047161446
 30
0
  0
VERTEX
  8
WATER_TABLE
 62
     5
 10
134.176709407571
 20
20.7553047130929
 30
0
  0
VERTEX
  8
WATER_TABLE
 62
     5
 10
136.946210139993
 20
20.2735046337472
 30
0
  0
VERTEX
  8
WATER_TABLE
 62
     5
 10
186
 20
20
 30
0
  0
SEQEND
  8
WATER_TABLE
  0
ENDSEC
  0
EOF
